<svg version="1.1" id="Warstwa_1" xmlns="http://www.w3.org/2000/svg" xmlns:xlink="http://www.w3.org/1999/xlink" x="0px" y="0px" viewBox="0 0 151 171" style="enable-background:new 0 0 151 171;" xml:space="preserve">
<style type="text/css">.st0{fill:#18B0DD;}</style><path class="st0" d="M110.3,78.8l-9.1-1.7c0-0.1,2-10.6,1.9-23.3c-0.1-16.2-3.3-28.6-9.4-36c-4.7-5.6-11-8.4-19.4-8.4 s-14.7,2.7-19.4,8.4c-6.1,7.3-9.3,19.8-9.4,36c0,12.7,1.9,23.2,1.9,23.3l-9.1,1.7c-0.4-1.8-8.4-45.4,9.4-66.9 C54.2,4.1,63.1,0.1,74.2,0.1s20.1,4,26.5,11.8C118.7,33.4,110.6,77,110.3,78.8"/>
<path class="st0" d="M129.9,171H21.1C9.4,171,0,161.5,0,149.9V52.5h151v97.4C151,161.6,141.5,171,129.9,171 M9.3,61.8v88.1 c0,6.5,5.3,11.8,11.8,11.8h108.8c6.5,0,11.8-5.3,11.8-11.8V61.8H9.3z"/></svg>
